<svg xmlns="http://www.w3.org/2000/svg" width="64" height="65" viewBox="0 0 64 65" fill="none"><path d="M52.8731 14.2483C53.6059 14.2483 54.2335 13.9774 54.7559 13.4356C55.2773 12.8946 55.538 12.2441 55.538 11.4838C55.538 10.7236 55.2773 10.0726 54.7559 9.53074C54.2335 8.98983 53.6059 8.71937 52.8731 8.71937C52.1402 8.71937 51.513 8.98983 50.9916 9.53074C50.4693 10.0726 50.2081 10.7236 50.2081 11.4838C50.2081 12.2441 50.4693 12.8946 50.9916 13.4356C51.513 13.9774 52.1402 14.2483 52.8731 14.2483ZM52.8731 24.4077C55.5825 21.8276 57.5923 19.4833 58.9026 17.3749C60.2128 15.2675 60.868 13.3959 60.868 11.7603C60.868 9.24923 60.096 7.19292 58.5521 5.59137C57.0091 3.99075 55.1161 3.19043 52.8731 3.19043C50.63 3.19043 48.7366 3.99075 47.1927 5.59137C45.6496 7.19292 44.8781 9.24923 44.8781 11.7603C44.8781 13.3959 45.5333 15.2675 46.8436 17.3749C48.1538 19.4833 50.1637 21.8276 52.8731 24.4077ZM52.8731 28.0707C49.2976 24.9146 46.6273 21.9828 44.8621 19.2755C43.0962 16.5691 42.2132 14.064 42.2132 11.7603C42.2132 8.3047 43.2849 5.55175 45.4285 3.50144C47.5711 1.45112 50.0526 0.425964 52.8731 0.425964C55.6935 0.425964 58.175 1.45112 60.3177 3.50144C62.4612 5.55175 63.533 8.3047 63.533 11.7603C63.533 14.064 62.6504 16.5691 60.8853 19.2755C59.1193 21.9828 56.4486 24.9146 52.8731 28.0707Z" fill="white"></path><path d="M53.1028 26.78C53.1028 26.78 53.9961 34.5349 50.4813 38.0303C47.325 41.1692 42.21 39.638 38.9032 42.6179C35.3956 45.7788 34.7219 53.0223 31.9127 56.8174C27.0492 63.3877 18.3439 62.1729 18.3439 62.1729" stroke="white" stroke-width="2.5" stroke-linecap="round" stroke-dasharray="6 6"></path><circle cx="17.0234" cy="39" r="6" stroke="white" stroke-width="3"></circle><path d="M29.4866 39.6247C29.4866 32.0844 23.982 26.746 17.0234 26.746C10.0648 26.746 4.56022 32.0844 4.56022 39.6247C4.56022 44.4853 8.61076 50.9246 17.0234 58.6103C25.4361 50.9246 29.4866 44.4853 29.4866 39.6247ZM17.0234 22.5916C25.7477 22.5916 33.641 29.2802 33.641 39.6247C33.641 46.521 28.0949 54.6844 17.0234 64.1356C5.95195 54.6844 0.405823 46.521 0.405823 39.6247C0.405823 29.2802 8.29918 22.5916 17.0234 22.5916Z" fill="white"></path></svg>